<svg xmlns="http://www.w3.org/2000/svg" width="1024" height="1024" viewBox="0 0 1024 1024">
  <g transform="translate(0 0) translate(512 512) scale(1) translate(-512 -512)">
    
  <defs>
    <linearGradient id="jersey100" gradientUnits="userSpaceOnUse" x1="512" y1="234" x2="512" y2="809">
      <stop offset="0" stop-color="#2E6FE4"/>
      <stop offset="0.52" stop-color="#1FB5B2"/>
      <stop offset="1" stop-color="#34E389"/>
    </linearGradient>
  </defs>
  <path d="
    M 452 250 Q 512 244 572 250
    L 634 234 Q 702 234 726 253
    L 788 302 Q 815 344 800 375
    L 694 408 Q 689 408 692 435
    L 716 782 Q 719 805 695 809
    L 329 809 Q 305 805 308 782
    L 332 435 Q 335 408 330 408
    L 224 375 Q 209 344 236 302
    L 298 253 Q 322 234 390 234
    L 452 250 Z" fill="url(#jersey100)" stroke="#0A1016" stroke-width="20" stroke-linejoin="round"/>
  <!-- sombra tonal lateral pra dar volume -->
  <path d="
    M 452 250 Q 512 244 572 250
    L 634 234 Q 702 234 726 253
    L 788 302 Q 815 344 800 375
    L 694 408 Q 689 408 692 435
    L 716 782 Q 719 805 695 809
    L 329 809 Q 305 805 308 782
    L 332 435 Q 335 408 330 408
    L 224 375 Q 209 344 236 302
    L 298 253 Q 322 234 390 234
    L 452 250 Z" fill="#000000" opacity="0.10"
        transform="translate(9 6) scale(0.985)" style="transform-origin:512px 520px"/>
  <path d="M 452 250 Q 512 268 572 250 L 545 250 Q 512 372 479 250 Z" fill="#000000" opacity="0.22" stroke="#0A1016" stroke-width="9" stroke-linejoin="round"/>
    
  <defs>
    <clipPath id="ballclip"><circle cx="690" cy="720" r="168"/></clipPath>
  </defs>
  <circle cx="690" cy="720" r="168" fill="#F2F2F0"/>
  <g clip-path="url(#ballclip)">
    <g transform="rotate(-14 690 720)">
      <g stroke="#111820" stroke-width="15.12" stroke-linecap="round"><line x1="690.0" y1="662.9" x2="690.0" y2="543.6" /><line x1="744.3" y1="702.3" x2="857.8" y2="665.5" /><line x1="723.6" y1="766.2" x2="793.7" y2="862.7" /><line x1="656.4" y1="766.2" x2="586.3" y2="862.7" /><line x1="635.7" y1="702.3" x2="522.2" y2="665.5" /></g>
      <path d="M 747.3 641.2 L 730.2 588.6 L 774.9 556.1 L 819.7 588.6 L 802.6 641.2 Z" fill="#111820"/><path d="M 782.7 750.1 L 827.4 717.6 L 872.1 750.1 L 855.1 802.7 L 799.8 802.7 Z" fill="#111820"/><path d="M 690.0 817.4 L 734.7 849.9 L 717.6 902.5 L 662.4 902.5 L 645.3 849.9 Z" fill="#111820"/><path d="M 597.3 750.1 L 580.2 802.7 L 524.9 802.7 L 507.9 750.1 L 552.6 717.6 Z" fill="#111820"/><path d="M 632.7 641.2 L 577.4 641.2 L 560.3 588.6 L 605.1 556.1 L 649.8 588.6 Z" fill="#111820"/>
      <path d="M 690.0 662.9 L 744.3 702.3 L 723.6 766.2 L 656.4 766.2 L 635.7 702.3 Z" fill="#111820"/>
    </g>
  </g>
  <circle cx="690" cy="720" r="168" fill="none" stroke="#0A1016" stroke-width="18.48"/>
  </g>
</svg>